<?xml version="1.0" encoding="UTF-8"?>
<svg id="Layer_1" data-name="Layer 1" xmlns="http://www.w3.org/2000/svg" viewBox="0 0 566.93 566.93">
  <defs>
    <style>
      .cls-1 {
        fill: #fdfefd;
      }

      .cls-2 {
        fill: #fcfdfc;
      }

      .cls-3 {
        fill: #99ae69;
      }

      .cls-4 {
        fill: #fff;
        stroke: #fff;
        stroke-miterlimit: 10;
      }
    </style>
  </defs>
  <circle class="cls-4" cx="283.46" cy="283.46" r="281.63"/>
  <g>
    <path class="cls-1" d="M1527.57-16.27v598.69H-150.82V-16.27h1678.39ZM107.46,477.81C415.18,759.22,763.36,217.61,414.87,42.65,133.76-98.49-119.75,270.01,107.46,477.81ZM787.85,171.46c-39.29-8.89-115.49-11.46-140.58,25.08-6.57,9.57-39.32,122.76-37.73,129.3,2.96,12.17,33.28,9.11,42.3,3.32,9.05-5.81,7.52-35.93,16.11-35.93h73.97c.98,10.21-3.8,32.45,4.77,38.36,7.76,5.35,41.14,3.36,41.14-5.38v-154.75ZM946,278c-31.82-23.13-55.14-109.33-94.48-111.94-6.11-.41-33.05,3.73-33.05,5.39v154.75c0,10.63,40.81,10.63,40.81,0v-98.94l69.42,100.93c9.02,8.28,58.12,9.02,58.12-2v-154.75c-7.04-6.14-40.81-3.21-40.81,0v106.55ZM1017.42,171.46v157.28c0,1.18,19.84,5.49,23.09,5.4,32.66-.91,21.27-38.36,22.8-61.24,69.79-17.19,52.99,81.56,122.52,58.31,1.02-13.67-25.36-59.73-40.84-63.45,12.84-17.61,31.53-12.08,35.45-38.38,12.08-81.13-113.55-65.76-163.02-57.94ZM1354.12,171.46h-147.94v154.75c0,8.18,28.27,10.74,36.05,5.38,9.92-6.84,2.63-45.75,4.74-58.68,32.42-6.46,102.23,20.78,91.85-30.42h-84.17c-9.84,0-8.11-32.38-7.65-40.59h107.13v-30.44ZM818.46,369.33c-23.19-2.22-15.99-.85-20.41,10.15-2.51,6.24-10.08,11.1-2.93,20.67l28.44,4.73.03-43.13c-6.75-8.04-4.98,3.85-5.13,7.6ZM956.2,379.48c-1.37,1.35-12.82-5.07-10.52,12.89,1.54,11.99,9.09,5.99,10.52,7.41.64.64-2.5,18.4,10.34,7.75,9.55-7.91,15.84-32.44,2.36-38.15-15.5-6.56-12.12,9.53-12.7,10.1ZM1223.16,396.58c6.06-3.88,21.01-3.8,18.7-14.5-5.32-24.61-43.67-10.51-30.56,22.73,12.22,5.24,8.57-6.14,11.86-8.24Z"/>
    <path class="cls-3" d="M107.46,477.81C-119.75,270.01,133.76-98.49,414.87,42.65c348.49,174.96.31,716.57-307.4,435.16ZM454.18,82.21C167.08-141.34-137.98,298.22,140.27,493.32c274.71,192.62,565.08-215.55,313.91-411.11Z"/>
    <path class="cls-2" d="M454.18,82.21c251.17,195.57-39.2,603.73-313.91,411.11C-137.98,298.22,167.08-141.34,454.18,82.21ZM502.17,318.59h-84.17c-31.61,0-137.72-68.11-194.41-75.56-20.89-2.74-58.24,9.5-47.15-17.54,2.83-6.89,13.49-9.48,18.93-16.68,15.24-20.19,12.63-42.03-4.29-60.26-29.4-31.69-57.08,18.92-51.17,48.27-23.93-24.61-46.59,13.46-30.07,37.58,15.96,23.3,38-10.06,37.74-27.4,11.93,5.91,32.31,20.31,20.83,35.86-3.99,5.4-74.33,21.69-84.39,37.96l-20.55,22.5c61.81-25.17,115.62-35.45,181.24-15.35,46.38,14.2,82.62,49.54,133.02,55.43,38.23,4.47,96.37,4.07,124.44-24.82ZM469.81,213.79c-52.74-45.51-157.87-37.29-187.05,31.12,3.31,15.61,189.55,58.31,216.83,53.36,32.27-5.85-15.06-71.77-29.79-84.48ZM63.46,328.69c127.3-5.5,226.27,121.01,357.17,83.86,33.07-9.39,73.31-39.25,86.52-71.19-32.4,14.98-62.54,34.52-99.41,38.06-126.86,12.17-194.66-109.88-330.34-59.58-5.36,1.99-15.14,1.71-13.94,8.84Z"/>
    <path class="cls-3" d="M502.17,318.59c-28.07,28.89-86.2,29.3-124.44,24.82-50.4-5.9-86.64-41.23-133.02-55.43-65.62-20.1-119.43-9.82-181.24,15.35l20.55-22.5c10.05-16.28,80.4-32.56,84.39-37.96,11.48-15.55-8.9-29.95-20.83-35.86.27,17.33-21.78,50.7-37.74,27.4-16.52-24.12,6.13-62.19,30.07-37.58-5.91-29.35,21.77-79.96,51.17-48.27,16.92,18.23,19.52,40.07,4.29,60.26-5.44,7.2-16.1,9.79-18.93,16.68-11.09,27.04,26.26,14.79,47.15,17.54,56.68,7.45,162.8,75.56,194.41,75.56h84.17Z"/>
    <path class="cls-3" d="M469.81,213.79c14.73,12.71,62.06,78.63,29.79,84.48-27.29,4.95-213.52-37.75-216.83-53.36,29.17-68.41,134.31-76.63,187.05-31.12Z"/>
    <path class="cls-3" d="M63.46,328.69c-1.21-7.13,8.57-6.85,13.94-8.84,135.68-50.3,203.48,71.75,330.34,59.58,36.87-3.54,67.02-23.08,99.41-38.06-13.21,31.94-53.45,61.8-86.52,71.19-130.9,37.15-229.87-89.36-357.17-83.86Z"/>
  </g>
</svg>